<?xml version="1.0" encoding="iso-8859-1"?>
<!-- Generator: Adobe Illustrator 19.0.0, SVG Export Plug-In . SVG Version: 6.00 Build 0)  -->
<svg version="1.1" id="Capa_1" xmlns="http://www.w3.org/2000/svg" xmlns:xlink="http://www.w3.org/1999/xlink" x="0px" y="0px"
	 viewBox="0 0 512 512" style="enable-background:new 0 0 512 512;" xml:space="preserve">
<path style="fill:#303C42;" d="M405.333,0H106.667C83.146,0,64,19.135,64,42.667v426.667C64,492.865,83.146,512,106.667,512h298.667
	C428.854,512,448,492.865,448,469.333V42.667C448,19.135,428.854,0,405.333,0z"/>
<path style="fill:#3D82C4;" d="M320,21.333h64v100.073l-27.229-13.615c-3-1.5-6.542-1.5-9.542,0L320,121.406V21.333z"/>
<polygon style="opacity:0.2;fill:#FFFFFF;enable-background:new    ;" points="330.667,21.333 320,21.333 320,121.406 
	330.667,116.073 "/>
<polygon style="opacity:0.1;fill:#010101;enable-background:new    ;" points="373.333,21.333 373.333,116.073 384,121.406 
	384,21.333 "/>
<path style="fill:#F3F3F3;" d="M426.667,469.333c0,11.76-9.563,21.333-21.333,21.333H106.667c-11.771,0-21.333-9.573-21.333-21.333
	V42.667c0-11.76,9.563-21.333,21.333-21.333h192v117.333c0,3.698,1.917,7.125,5.063,9.073c3.125,1.938,7.063,2.115,10.375,0.469
	L352,129.26l37.896,18.948c1.5,0.75,3.146,1.125,4.771,1.125c1.958,0,3.896-0.531,5.604-1.594c3.146-1.948,5.063-5.375,5.063-9.073
	V21.333c11.771,0,21.333,9.573,21.333,21.333V469.333z"/>
<path style="opacity:0.2;fill:#FFFFFF;enable-background:new    ;" d="M106.667,469.333V42.667c0-11.76,8.367-21.333,18.667-21.333
	h-18.667c-11.771,0-21.333,9.573-21.333,21.333v426.667c0,11.76,9.563,21.333,21.333,21.333h18.667
	C115.034,490.667,106.667,481.094,106.667,469.333z"/>
<path style="opacity:0.1;fill:#010101;enable-background:new    ;" d="M405.333,21.333v21.333v96v330.667
	c0,11.76-8.367,21.333-18.667,21.333h18.667c11.771,0,21.333-9.573,21.333-21.333V42.667
	C426.667,30.906,417.104,21.333,405.333,21.333z"/>
<g>
	<path style="fill:#303C42;" d="M256,117.333c0-5.896-4.771-10.667-10.667-10.667H138.667c-5.896,0-10.667,4.771-10.667,10.667
		S132.771,128,138.667,128h106.667C251.229,128,256,123.229,256,117.333z"/>
	<path style="fill:#303C42;" d="M352,213.333H160c-5.896,0-10.667,4.771-10.667,10.667c0,5.896,4.771,10.667,10.667,10.667h192
		c5.896,0,10.667-4.771,10.667-10.667C362.667,218.104,357.896,213.333,352,213.333z"/>
	<path style="fill:#303C42;" d="M352,298.667H160c-5.896,0-10.667,4.771-10.667,10.667S154.104,320,160,320h192
		c5.896,0,10.667-4.771,10.667-10.667S357.896,298.667,352,298.667z"/>
	<path style="fill:#303C42;" d="M352,384H160c-5.896,0-10.667,4.771-10.667,10.667c0,5.896,4.771,10.667,10.667,10.667h192
		c5.896,0,10.667-4.771,10.667-10.667C362.667,388.771,357.896,384,352,384z"/>
</g>
<linearGradient id="SVGID_1_" gradientUnits="userSpaceOnUse" x1="-30.3772" y1="642.809" x2="-24.029" y2="636.4638" gradientTransform="matrix(21.3333 0 0 -21.3333 996.3334 13791.667)">
	<stop  offset="0" style="stop-color:#010101;stop-opacity:0.1"/>
	<stop  offset="1" style="stop-color:#010101;stop-opacity:0"/>
</linearGradient>
<path style="fill:url(#SVGID_1_);" d="M400.271,147.74c-1.708,1.063-3.646,1.594-5.604,1.594c-1.625,0-3.271-0.375-4.771-1.125
	L352,129.26l-37.896,18.948c-3.313,1.646-7.25,1.469-10.375-0.469c-1.141-0.707-1.906-1.777-2.691-2.815l-0.134,0.159
	l125.763,125.763V42.667l-21.333-21.333v117.333C405.333,142.365,403.417,145.792,400.271,147.74z"/>
<linearGradient id="SVGID_2_" gradientUnits="userSpaceOnUse" x1="-46.0956" y1="639.7964" x2="-23.3106" y2="629.1724" gradientTransform="matrix(21.3333 0 0 -21.3333 996.3334 13791.667)">
	<stop  offset="0" style="stop-color:#FFFFFF;stop-opacity:0.2"/>
	<stop  offset="1" style="stop-color:#FFFFFF;stop-opacity:0"/>
</linearGradient>
<path style="fill:url(#SVGID_2_);" d="M405.333,0H106.667C83.146,0,64,19.135,64,42.667v426.667C64,492.865,83.146,512,106.667,512
	h298.667C428.854,512,448,492.865,448,469.333V42.667C448,19.135,428.854,0,405.333,0z"/>
<g>
</g>
<g>
</g>
<g>
</g>
<g>
</g>
<g>
</g>
<g>
</g>
<g>
</g>
<g>
</g>
<g>
</g>
<g>
</g>
<g>
</g>
<g>
</g>
<g>
</g>
<g>
</g>
<g>
</g>
</svg>
